<svg xmlns="http://www.w3.org/2000/svg" viewBox="0 0 618.43 377.41"><defs><style>.cls-1{fill:#fff;}</style></defs><g id="Layer_2" data-name="Layer 2"><g id="Layer_1-2" data-name="Layer 1"><path class="cls-1" d="M0,377.28c6.31-13.1,11.9-24.82,17.58-36.49Q85.5,201,153.43,61.31c9.1-18.73,18.18-37.48,27.06-56.31,1.73-3.66,3.87-5,8-5q105.5.3,211,.32h5.74c-.77,2.15-1.21,3.67-1.85,5.1-8.69,19.47-17.52,38.87-26,58.42-1.6,3.67-4,3.69-7.14,3.69-45.84,0-91.67.13-137.5.06-3.85,0-6,1.11-7.69,4.68q-43.44,90.86-87.12,181.59-12,25-24.09,49.95c-.71,1.47-1.32,3-2.36,5.36H471.78c-3.07,7.24-5.6,13.48-8.34,19.62-6.52,14.57-13.19,29.06-19.66,43.66-1.3,2.94-2.42,5-6.32,5q-184.24-.2-368.48-.16-31,0-62,0Z"/><path class="cls-1" d="M507.57,1.42c-4.62,9.69-9,19-13.47,28.24C465.38,89.6,436.45,149.44,408,209.52c-10.12,21.37-19.21,43.23-28.44,65-1.65,3.91-3.62,5.12-7.71,5.1q-103.23-.3-206.47-.35c-1.63,0-3.26-.18-5.72-.32a56.18,56.18,0,0,1,1.91-5.41c16.51-34.2,33.12-68.35,49.56-102.58q15.9-33.1,31.35-66.41c2.06-4.48,4.62-5.83,9.47-5.81,45.16.23,90.32.13,135.48.32,4.24,0,6.45-1.19,8.34-5.15,14.09-29.63,28.47-59.13,42.73-88.68C439.7,2.8,440.66.68,444.18.71c19.83.16,39.66.07,59.49.1A28.31,28.31,0,0,1,507.57,1.42ZM257,217.64c2.75.14,4.36.28,6,.28,25.3,0,50.6-.09,75.9.1,4,0,5.92-1.44,7.52-4.9,8.12-17.51,16.46-34.91,24.69-52.37.68-1.42,1.14-2.95,1.79-4.66a15.34,15.34,0,0,0-2.41-.49c-26,0-51.93-.13-77.9,0-1.6,0-3.79,1.78-4.68,3.32-3.81,6.63-7.26,13.47-10.81,20.25C270.54,191.72,264,204.24,257,217.64Z"/><path class="cls-1" d="M569.86,99.23c-4.64,9.51-8.85,18.16-13.09,26.79q-36.53,74.49-73,149c-1.28,2.62-2.58,4.38-5.85,4.37-22.84-.1-45.67-.07-68.5-.12a27.67,27.67,0,0,1-4.05-.68c.7-1.8,1.15-3.31,1.84-4.71q41.77-84.72,83.48-169.49c2-4.12,4.29-5.31,8.68-5.27C522.49,99.35,545.65,99.23,569.86,99.23Z"/><path class="cls-1" d="M508.88,68.78c.75-1.8,1.23-3.18,1.88-4.49,9.89-19.81,19.73-39.66,29.82-59.37.92-1.81,3.48-3.93,5.3-4C569,.7,592.19.79,615.34.82a18.93,18.93,0,0,1,3.09.56A17.56,17.56,0,0,1,617.62,4c-10.44,20.66-20.85,41.34-31.47,61.91-.8,1.54-3.09,3.29-4.7,3.3-23.49.2-47,.13-70.47.1A12.54,12.54,0,0,1,508.88,68.78Z"/></g></g></svg>